<svg width="90" height="60" viewBox="0 0 90 60" fill="none" xmlns="http://www.w3.org/2000/svg">
<rect width="90" height="60" fill="white" fill-opacity="0.01"/>
<path d="M43.5 17C42.322 17 41.2781 17.5932 40.6426 18.4883C40.169 18.1771 39.6051 17.9922 39 17.9922C37.355 17.9922 36 19.3367 36 20.9689C36 21.318 36.0739 21.6487 36.1875 21.9611H31C29.895 21.9611 29 22.8492 29 23.9456V25.93H53V23.9456C53 22.8492 52.105 21.9611 51 21.9611H46.6445C46.865 21.5075 47 21.0066 47 20.4728C47 18.5665 45.4212 17 43.5 17ZM43.5 18.9844C44.3408 18.9844 45 19.6385 45 20.4728C45 21.3071 44.3408 21.9611 43.5 21.9611H42V20.9689V20.4728C42 19.6385 42.6592 18.9844 43.5 18.9844ZM39 19.9767C39.565 19.9767 40 20.4083 40 20.9689V21.9611H39C38.435 21.9611 38 21.5295 38 20.9689C38 20.4083 38.435 19.9767 39 19.9767ZM30 27.9144V40.8133C30 41.9098 30.895 42.7978 32 42.7978H50C51.105 42.7978 52 41.9098 52 40.8133V27.9144H30ZM38.7773 30.8911C39.6903 30.8911 40.494 31.3346 41 32.0093C41.506 31.3346 42.3097 30.8911 43.2227 30.8911C44.7567 30.8911 46 32.1248 46 33.6469C46 35.8675 42.7532 38.6438 41.4922 39.639C41.2012 39.8682 40.7988 39.8682 40.5078 39.639C39.2468 38.6438 36 35.8675 36 33.6469C36 32.1248 37.2433 30.8911 38.7773 30.8911Z" fill="white" fill-opacity="0.6"/>
</svg>
