<svg width="90" height="60" viewBox="0 0 90 60" fill="none" xmlns="http://www.w3.org/2000/svg">
<rect width="90" height="60" fill="white" fill-opacity="0.01"/>
<path fill-rule="evenodd" clip-rule="evenodd" d="M30 19C28.8954 19 28 19.8954 28 21V39C28 40.1046 28.8954 41 30 41H52C53.1046 41 54 40.1046 54 39V21C54 19.8954 53.1046 19 52 19H30ZM41 29C41 26.791 39.209 25 37 25V29H41ZM35 31V27C32.791 27 31 28.791 31 31C31 33.209 32.791 35 35 35C37.209 35 39 33.209 39 31H35ZM45 25H47C47.552 25 48 25.448 48 26C48 26.552 47.552 27 47 27H45C44.448 27 44 26.552 44 26C44 25.448 44.448 25 45 25ZM50 29H45C44.448 29 44 29.448 44 30C44 30.552 44.448 31 45 31H50C50.552 31 51 30.552 51 30C51 29.448 50.552 29 50 29ZM44 34C44 33.448 44.448 33 45 33H49C49.552 33 50 33.448 50 34C50 34.552 49.552 35 49 35H45C44.448 35 44 34.552 44 34Z" fill="white" fill-opacity="0.6"/>
</svg>
