<svg width="90" height="60" viewBox="0 0 90 60" fill="none" xmlns="http://www.w3.org/2000/svg">
<rect width="90" height="60" fill="white" fill-opacity="0.01"/>
<path d="M44 34V32C44.45 31.777 45.737 30.245 45.872 29.048C46.226 29.021 46.782 28.696 46.946 27.413C47.034 26.724 46.684 26.337 46.472 26.215C46.472 26.215 47 25.212 47 24.001C47 21.573 46.047 19.501 44 19.501C44 19.501 43.289 18.001 41 18.001C36.758 18.001 35 20.722 35 24.001C35 25.105 35.528 26.215 35.528 26.215C35.316 26.337 34.966 26.725 35.054 27.413C35.218 28.696 35.774 29.021 36.128 29.048C36.263 30.245 37.55 31.777 38 32V34C37 37 29 35 29 42H53C53 35 45 37 44 34Z" fill="white" fill-opacity="0.6"/>
</svg>
