<svg width="90" height="60" viewBox="0 0 90 60" fill="none" xmlns="http://www.w3.org/2000/svg">
<rect width="90" height="60" fill="white" fill-opacity="0.01"/>
<path d="M49.5 19C48.672 19 48 19.672 48 20.5V20.6152L37 24V34L48 37.3848V37.5C48 38.328 48.672 39 49.5 39C50.328 39 51 38.328 51 37.5V20.5C51 19.672 50.328 19 49.5 19ZM35 24.1992L28.8008 24.8203C27.7788 24.9223 27 25.7825 27 26.8105V31.1895C27 32.2175 27.7788 33.0777 28.8008 33.1797L31.2305 33.4238L32.3809 40.168C32.4619 40.649 32.8782 41 33.3652 41H34C34.552 41 35 40.552 35 40L34.9961 33.8008H35V24.1992ZM53 26.5V31.5L53.4844 31.3789C54.3744 31.1559 55 30.3565 55 29.4395V28.5625C55 27.6445 54.3744 26.8441 53.4844 26.6211L53 26.5Z" fill="white" fill-opacity="0.6"/>
</svg>
