<svg width="36" height="36" viewBox="0 0 36 36" fill="none" xmlns="http://www.w3.org/2000/svg">
<path d="M18 36C27.9411 36 36 27.9411 36 18C36 8.05887 27.9411 0 18 0C8.05887 0 0 8.05887 0 18C0 27.9411 8.05887 36 18 36Z" fill="url(#paint0_radial)"/>
<path d="M30 28C32.7614 28 35 25.7614 35 23C35 20.2386 32.7614 18 30 18C27.2386 18 25 20.2386 25 23C25 25.7614 27.2386 28 30 28Z" fill="url(#paint1_radial)"/>
<path d="M6 28C8.76142 28 11 25.7614 11 23C11 20.2386 8.76142 18 6 18C3.23858 18 1 20.2386 1 23C1 25.7614 3.23858 28 6 28Z" fill="url(#paint2_radial)"/>
<path d="M18 27C13.894 27 12.664 25.544 12.664 25.544C12.664 25.544 13.98 29 18 29V28.999V29C22.02 29 23.336 25.544 23.336 25.544C23.336 25.544 22.106 27 18 27Z" fill="url(#paint3_radial)"/>
<path d="M18 29C14.49 29 13 26.233 13 26.233C13 26.233 14.058 31 18 31C21.942 31 23 26.233 23 26.233C23 26.233 21.51 29 18 29Z" fill="url(#paint4_radial)"/>
<path d="M13.299 24.805C12.798 24.529 12.304 25.163 12.691 25.584C13.815 26.806 15.542 28 18 28C20.458 28 22.185 26.806 23.309 25.584C23.696 25.163 23.202 24.529 22.701 24.805C21.55 25.441 19.976 26 18 26C16.024 26 14.45 25.441 13.299 24.805Z" fill="url(#paint5_radial)"/>
<path d="M28.5 19C28.7761 19 29 18.7761 29 18.5C29 18.2239 28.7761 18 28.5 18C28.2239 18 28 18.2239 28 18.5C28 18.7761 28.2239 19 28.5 19Z" fill="#212121"/>
<path d="M21.742 18.939C21.742 18.939 23.468 17.995 25 17.995C26.532 17.995 28.258 18.939 28.258 18.939L28.889 18.185C28.889 18.185 27.124 16 25 16C22.876 16 21.111 18.185 21.111 18.185L21.742 18.939Z" fill="#212121"/>
<path d="M21.5 19C21.7761 19 22 18.7761 22 18.5C22 18.2239 21.7761 18 21.5 18C21.2239 18 21 18.2239 21 18.5C21 18.7761 21.2239 19 21.5 19Z" fill="#212121"/>
<path d="M14.5 19C14.7761 19 15 18.7761 15 18.5C15 18.2239 14.7761 18 14.5 18C14.2239 18 14 18.2239 14 18.5C14 18.7761 14.2239 19 14.5 19Z" fill="#212121"/>
<path d="M7.74202 18.939C7.74202 18.939 9.46802 17.995 11 17.995C12.532 17.995 14.258 18.939 14.258 18.939L14.889 18.185C14.889 18.185 13.124 16 11 16C8.87602 16 7.11102 18.185 7.11102 18.185L7.74202 18.939Z" fill="#212121"/>
<path d="M7.5 19C7.77614 19 8 18.7761 8 18.5C8 18.2239 7.77614 18 7.5 18C7.22386 18 7 18.2239 7 18.5C7 18.7761 7.22386 19 7.5 19Z" fill="#212121"/>
<defs>
<radialGradient id="paint0_radial" cx="0" cy="0" r="1" gradientUnits="userSpaceOnUse" gradientTransform="translate(18 18) scale(18)">
<stop stop-color="#FFE16E"/>
<stop offset="0.629" stop-color="#FFD426"/>
<stop offset="0.72" stop-color="#FDCD23"/>
<stop offset="0.854" stop-color="#F8B919"/>
<stop offset="1" stop-color="#F09C0C"/>
</radialGradient>
<radialGradient id="paint1_radial" cx="0" cy="0" r="1" gradientUnits="userSpaceOnUse" gradientTransform="translate(30 23) scale(5)">
<stop stop-color="#FF8400" stop-opacity="0.6"/>
<stop offset="0.999" stop-color="#FF8400" stop-opacity="0"/>
</radialGradient>
<radialGradient id="paint2_radial" cx="0" cy="0" r="1" gradientUnits="userSpaceOnUse" gradientTransform="translate(6 23) scale(5)">
<stop stop-color="#FF8400" stop-opacity="0.5"/>
<stop offset="0.999" stop-color="#FF8400" stop-opacity="0"/>
</radialGradient>
<radialGradient id="paint3_radial" cx="0" cy="0" r="1" gradientUnits="userSpaceOnUse" gradientTransform="translate(17.988 23.43) scale(5.577)">
<stop offset="0.914" stop-color="#FFE16E"/>
<stop offset="1" stop-color="#FFE16E" stop-opacity="0"/>
</radialGradient>
<radialGradient id="paint4_radial" cx="0" cy="0" r="1" gradientUnits="userSpaceOnUse" gradientTransform="translate(18.046 25.778) scale(5.044)">
<stop offset="0.696" stop-color="#CC9000"/>
<stop offset="1" stop-color="#CC9000" stop-opacity="0"/>
</radialGradient>
<radialGradient id="paint5_radial" cx="0" cy="0" r="1" gradientUnits="userSpaceOnUse" gradientTransform="translate(18.0161 25.457) rotate(180) scale(5.4789 2.93826)">
<stop stop-color="#1C1911"/>
<stop offset="0.999" stop-color="#171714"/>
</radialGradient>
</defs>
</svg>
