<svg width="90" height="60" viewBox="0 0 90 60" fill="none" xmlns="http://www.w3.org/2000/svg">
<rect width="90" height="60" fill="white" fill-opacity="0.01"/>
<g clip-path="url(#clip0)">
<path d="M41 18C34.3845 18 29 23.3845 29 30C29 36.6154 34.3845 42 41 42C47.6155 42 53 36.6154 53 30C53 25.8603 50.8979 22.2001 47.6992 20.0429L48.8457 18.5722L44 18.3965L45.3984 23L46.4609 21.6347C48.9274 23.2472 50.6393 25.9092 50.9453 29.0019C50.69 29.0159 50.4498 29.1271 50.274 29.3128C50.0982 29.4984 50.0001 29.7443 50 30C50.0002 30.2566 50.099 30.5033 50.2761 30.6891C50.4531 30.8749 50.6948 30.9855 50.9512 30.998C50.4843 35.7324 46.7324 39.4843 41.998 39.9511C41.9855 39.6948 41.8749 39.4531 41.6891 39.2761C41.5034 39.099 41.2566 39.0002 41 39C40.7434 39.0002 40.4966 39.099 40.3109 39.2761C40.1251 39.4531 40.0145 39.6948 40.002 39.9511C35.2676 39.4843 31.5157 35.7324 31.0488 30.998C31.3052 30.9855 31.5469 30.8749 31.7239 30.6891C31.901 30.5033 31.9998 30.2566 32 30C31.9998 29.7433 31.901 29.4966 31.7239 29.3108C31.5469 29.1251 31.3052 29.0145 31.0488 29.0019C31.5481 23.9389 35.8028 20 41 20C41.1325 20.0019 41.2641 19.9774 41.387 19.928C41.51 19.8785 41.6219 19.8052 41.7163 19.7121C41.8107 19.6191 41.8856 19.5082 41.9368 19.386C41.9879 19.2637 42.0142 19.1325 42.0142 19C42.0142 18.8675 41.9879 18.7362 41.9368 18.614C41.8856 18.4917 41.8107 18.3809 41.7163 18.2878C41.6219 18.1948 41.51 18.1214 41.387 18.072C41.2641 18.0226 41.1325 17.9981 41 18ZM40.9844 22.9863C40.7195 22.9904 40.4671 23.0995 40.2825 23.2896C40.098 23.4796 39.9964 23.7351 40 24V29.5L36.4004 32.1992C36.188 32.3582 36.0475 32.5951 36.0098 32.8577C35.972 33.1204 36.0402 33.3872 36.1992 33.5996C36.3582 33.812 36.5951 33.9525 36.8577 33.9902C37.1204 34.0279 37.3872 33.9598 37.5996 33.8008L41.5996 30.8008C41.724 30.7076 41.8249 30.5867 41.8944 30.4477C41.9639 30.3087 42.0001 30.1554 42 30V24C42.0018 23.8662 41.9768 23.7334 41.9264 23.6095C41.876 23.4855 41.8012 23.3729 41.7065 23.2784C41.6118 23.1839 41.4991 23.1093 41.375 23.0592C41.251 23.009 41.1182 22.9842 40.9844 22.9863Z" fill="white" fill-opacity="0.6"/>
</g>
<defs>
<clipPath id="clip0">
<rect width="30" height="30" fill="white" transform="translate(26 15)"/>
</clipPath>
</defs>
</svg>
