<svg width="26" height="22" viewBox="0 0 26 22" fill="none" xmlns="http://www.w3.org/2000/svg">
<path d="M24 0H2C0.895 0 0 0.895 0 2V20C0 21.105 0.895 22 2 22H24C25.105 22 26 21.105 26 20V2C26 0.895 25.105 0 24 0ZM24 3.5C24 4.32843 23.3284 5 22.5 5C21.6716 5 21 4.32843 21 3.5C21 2.67157 21.6716 2 22.5 2C23.3284 2 24 2.67157 24 3.5ZM24 8.5C24 9.32843 23.3284 10 22.5 10C21.6716 10 21 9.32843 21 8.5C21 7.67157 21.6716 7 22.5 7C23.3284 7 24 7.67157 24 8.5ZM19.5 12H6.5C6.224 12 6 11.776 6 11.5C6 11.224 6.224 11 6.5 11H19.5C19.776 11 20 11.224 20 11.5C20 11.776 19.776 12 19.5 12ZM24 13.5C24 14.3284 23.3284 15 22.5 15C21.6716 15 21 14.3284 21 13.5C21 12.6716 21.6716 12 22.5 12C23.3284 12 24 12.6716 24 13.5ZM24 18.5C24 19.3284 23.3284 20 22.5 20C21.6716 20 21 19.3284 21 18.5C21 17.6716 21.6716 17 22.5 17C23.3284 17 24 17.6716 24 18.5ZM5 3.5C5 4.32843 4.32843 5 3.5 5C2.67157 5 2 4.32843 2 3.5C2 2.67157 2.67157 2 3.5 2C4.32843 2 5 2.67157 5 3.5ZM5 8.5C5 9.32843 4.32843 10 3.5 10C2.67157 10 2 9.32843 2 8.5C2 7.67157 2.67157 7 3.5 7C4.32843 7 5 7.67157 5 8.5ZM5 13.5C5 14.3284 4.32843 15 3.5 15C2.67157 15 2 14.3284 2 13.5C2 12.6716 2.67157 12 3.5 12C4.32843 12 5 12.6716 5 13.5ZM5 18.5C5 19.3284 4.32843 20 3.5 20C2.67157 20 2 19.3284 2 18.5C2 17.6716 2.67157 17 3.5 17C4.32843 17 5 17.6716 5 18.5Z" fill="white"/>
</svg>
