<svg width="24" height="18" viewBox="0 0 24 18" fill="none" xmlns="http://www.w3.org/2000/svg">
<path d="M24 6.6V2.4C24 1.08 22.92 0 21.6 0H18.3C18.3 0.48 17.88 0.9 17.4 0.9C16.92 0.9 16.5 0.48 16.5 0H2.4C1.08 0 0 1.08 0 2.4V6.6C1.32 6.6 2.4 7.68 2.4 9C2.4 10.32 1.32 11.4 0 11.4V15.6C0 16.92 1.08 18 2.4 18H16.5C16.5 17.52 16.92 17.1 17.4 17.1C17.88 17.1 18.3 17.52 18.3 18H21.6C22.92 18 24 16.92 24 15.6V11.4C22.68 11.4 21.6 10.32 21.6 9C21.6 7.68 22.68 6.6 24 6.6ZM17.4 15.9C16.92 15.9 16.5 15.48 16.5 15C16.5 14.52 16.92 14.1 17.4 14.1C17.88 14.1 18.3 14.52 18.3 15C18.3 15.48 17.88 15.9 17.4 15.9ZM17.4 12.9C16.92 12.9 16.5 12.48 16.5 12C16.5 11.52 16.92 11.1 17.4 11.1C17.88 11.1 18.3 11.52 18.3 12C18.3 12.48 17.88 12.9 17.4 12.9ZM17.4 9.9C16.92 9.9 16.5 9.48 16.5 9C16.5 8.52 16.92 8.1 17.4 8.1C17.88 8.1 18.3 8.52 18.3 9C18.3 9.48 17.88 9.9 17.4 9.9ZM17.4 6.9C16.92 6.9 16.5 6.48 16.5 6C16.5 5.52 16.92 5.1 17.4 5.1C17.88 5.1 18.3 5.52 18.3 6C18.3 6.48 17.88 6.9 17.4 6.9ZM17.4 3.9C16.92 3.9 16.5 3.48 16.5 3C16.5 2.52 16.92 2.1 17.4 2.1C17.88 2.1 18.3 2.52 18.3 3C18.3 3.48 17.88 3.9 17.4 3.9Z" fill="#FFA726"/>
<path d="M10.2 4.80005L11.58 7.56005L14.64 7.98005L12.42 10.14L12.9 13.2L10.2 11.76L7.50001 13.2L7.98001 10.14L5.76001 7.98005L8.82001 7.56005L10.2 4.80005Z" fill="#F44336"/>
</svg>
